<svg width="21" height="20" viewBox="0 0 21 20" fill="none" xmlns="http://www.w3.org/2000/svg">
<path d="M17.4929 9.16683H4.15953V13.6668C4.15953 15.3237 5.50267 16.6668 7.15953 16.6668H14.4929C16.1497 16.6668 17.4929 15.3237 17.4929 13.6668V9.16683Z" fill="#6918B4"/>
<path fill-rule="evenodd" clip-rule="evenodd" d="M15.8262 0.833496C16.2864 0.833496 16.6595 1.20659 16.6595 1.66683V2.50016H18.3262C18.7864 2.50016 19.1595 2.87326 19.1595 3.3335V15.3335C19.1595 16.9904 17.8164 18.3335 16.1595 18.3335H5.49286C3.836 18.3335 2.49286 16.9903 2.49286 15.3335V3.3335C2.49286 2.87326 2.86595 2.50016 3.32619 2.50016H4.99286V1.66683C4.99286 1.20659 5.36596 0.833496 5.82619 0.833496C6.28643 0.833496 6.65953 1.20659 6.65953 1.66683V2.50016H14.9929V1.66683C14.9929 1.20659 15.366 0.833496 15.8262 0.833496ZM4.15953 9.16683H17.4929V13.6668C17.4929 15.3237 16.1497 16.6668 14.4929 16.6668H7.15953C5.50267 16.6668 4.15953 15.3237 4.15953 13.6668V9.16683ZM4.15953 4.16683H4.99286C4.99286 4.62707 5.36596 5.00016 5.82619 5.00016C6.28643 5.00016 6.65953 4.62707 6.65953 4.16683H14.9929C14.9929 4.62707 15.366 5.00016 15.8262 5.00016C16.2864 5.00016 16.6595 4.62707 16.6595 4.16683H17.4929V7.50016H4.15953V4.16683Z" fill="#6918B4"/>
<path fill-rule="evenodd" clip-rule="evenodd" d="M4.15953 9.16683H17.4929V13.6668C17.4929 15.3237 16.1497 16.6668 14.4929 16.6668H7.15953C5.50267 16.6668 4.15953 15.3237 4.15953 13.6668V9.16683Z" fill="#6918B4"/>
</svg>
