<svg width="21" height="21" viewBox="0 0 21 21" fill="none" xmlns="http://www.w3.org/2000/svg">
<path d="M3.79291 1.72275C4.18343 1.33222 4.8166 1.33221 5.20713 1.72274L7.84521 4.36082C8.2147 4.73031 8.23742 5.32198 7.89736 5.71872L6.10267 7.81252C5.76261 8.20927 5.78533 8.80094 6.15483 9.17043L11.3453 14.3608C11.7148 14.7303 12.3065 14.753 12.7032 14.413L14.7969 12.6183C15.1937 12.2782 15.7853 12.3009 16.1548 12.6704L18.7929 15.3085C19.1834 15.6991 19.1834 16.3322 18.7929 16.7227L17.0807 18.435C16.6976 18.8181 16.2419 19.1241 15.7087 19.2199C14.0705 19.5143 10.0761 19.5917 5.50001 15.0156C0.923784 10.4394 1.00133 6.44497 1.29584 4.80687C1.39168 4.27376 1.69759 3.81813 2.08059 3.43512L3.79291 1.72275Z" fill="#929292" stroke="#929292" stroke-width="2" stroke-linecap="round"/>
</svg>
