<svg width="24" height="25" viewBox="0 0 24 25" fill="none" xmlns="http://www.w3.org/2000/svg">
<path d="M12 1.51562C18.0751 1.51562 23 5.61232 23 10.6658C23 15.7194 18.0751 19.8161 12 19.8161C11.3708 19.8161 10.7539 19.7721 10.1535 19.6877L4.26442 23.4479C4.14805 23.5221 3.99352 23.488 3.91923 23.3717C3.8787 23.3082 3.86894 23.2299 3.89267 23.1584C4.33581 21.8238 4.55016 20.5455 4.53571 19.3235C4.52725 18.6072 4.43993 17.8918 4.27377 17.1773C2.25203 15.5186 1 13.2139 1 10.6658C1 5.61232 5.92487 1.51562 12 1.51562ZM12 3.51562C6.95639 3.51562 3 6.8067 3 10.6658C3 12.4341 3.82275 14.121 5.31367 15.4365L5.5423 15.631L6.06781 16.0622L6.22178 16.7242C6.38738 17.4363 6.48782 18.1517 6.52259 18.8692L6.53557 19.2999L6.533 19.6256L9.70011 17.6043L10.432 17.7072C10.9457 17.7794 11.4696 17.8161 12 17.8161C17.0436 17.8161 21 14.525 21 10.6658C21 6.8067 17.0436 3.51562 12 3.51562Z" fill="#929292"/>
<path d="M12 3.51562C6.95639 3.51562 3 6.8067 3 10.6658C3 12.4341 3.82275 14.121 5.31367 15.4365L5.5423 15.631L6.06781 16.0622L6.22178 16.7242C6.38738 17.4363 6.48782 18.1517 6.52259 18.8692L6.53557 19.2999L6.533 19.6256L9.70011 17.6043L10.432 17.7072C10.9457 17.7794 11.4696 17.8161 12 17.8161C17.0436 17.8161 21 14.525 21 10.6658C21 6.8067 17.0436 3.51562 12 3.51562Z" fill="#929292"/>
</svg>
