<svg width="17" height="16" viewBox="0 0 17 16" fill="none" xmlns="http://www.w3.org/2000/svg">
<path fill-rule="evenodd" clip-rule="evenodd" d="M8.75004 2.66683C5.80452 2.66683 3.41671 5.05464 3.41671 8.00016C3.41671 10.9457 5.80452 13.3335 8.75004 13.3335C11.6956 13.3335 14.0834 10.9457 14.0834 8.00016C14.0834 5.05464 11.6956 2.66683 8.75004 2.66683ZM9.41222 3.92242C9.37371 3.59086 9.09193 3.3335 8.75004 3.3335C8.38185 3.3335 8.08337 3.63197 8.08337 4.00016V7.90016L8.08787 7.9837C8.1295 8.36782 8.45485 8.66683 8.85004 8.66683H12.75L12.8278 8.66234C13.1593 8.62383 13.4167 8.34205 13.4167 8.00016L13.4122 7.92242C13.3737 7.59086 13.0919 7.3335 12.75 7.3335H9.41671V4.00016L9.41222 3.92242Z" fill="#929292"/>
<path fill-rule="evenodd" clip-rule="evenodd" d="M15.4167 8.00016C15.4167 4.31826 12.4319 1.3335 8.75004 1.3335C5.06814 1.3335 2.08337 4.31826 2.08337 8.00016C2.08337 11.6821 5.06814 14.6668 8.75004 14.6668C12.4319 14.6668 15.4167 11.6821 15.4167 8.00016ZM3.41671 8.00016C3.41671 5.05464 5.80452 2.66683 8.75004 2.66683C11.6956 2.66683 14.0834 5.05464 14.0834 8.00016C14.0834 10.9457 11.6956 13.3335 8.75004 13.3335C5.80452 13.3335 3.41671 10.9457 3.41671 8.00016Z" fill="#929292"/>
</svg>
