<svg width="38" height="38" viewBox="0 0 38 38" fill="none" xmlns="http://www.w3.org/2000/svg">
<g clip-path="url(#clip0_306_16904)">
<path d="M19.1875 0C11.5539 0 5.34338 6.21287 5.34338 13.8496C5.34338 25.2279 17.8095 36.3377 18.3403 36.8052C18.5825 37.0184 18.8849 37.1251 19.1875 37.1251C19.4901 37.1251 19.7926 37.0185 20.0348 36.8052C20.5653 36.3379 33.0316 25.228 33.0316 13.8496C33.0316 6.21287 26.8211 0 19.1875 0ZM27.27 13.0638L24.1575 16.1054L24.8925 20.4004C24.9748 20.8815 24.7768 21.3675 24.3818 21.6542C24.1585 21.8161 23.8945 21.8984 23.6289 21.8984C23.4244 21.8984 23.2193 21.8495 23.0314 21.7505L19.1876 19.7245L15.3439 21.7505C14.912 21.9783 14.3885 21.9406 13.9934 21.6542C13.5984 21.3675 13.4004 20.8814 13.4826 20.4004L14.2176 16.1054L11.1051 13.0638C10.7565 12.723 10.6311 12.2139 10.7821 11.7502C10.933 11.2866 11.3339 10.9488 11.8163 10.8784L16.1145 10.2522L18.0375 6.34587C18.2533 5.90762 18.6991 5.63013 19.1875 5.63013C19.6759 5.63013 20.1219 5.90762 20.3375 6.34587L22.2606 10.2524L26.5589 10.8785C27.0413 10.9489 27.4421 11.2867 27.593 11.7504C27.7439 12.2139 27.6186 12.723 27.27 13.0638Z" fill="url(#paint0_linear_306_16904)"/>
</g>
<defs>
<linearGradient id="paint0_linear_306_16904" x1="19.1875" y1="0" x2="19.1875" y2="37.1251" gradientUnits="userSpaceOnUse">
<stop stop-color="#243763"/>
<stop offset="1" stop-color="#192745"/>
</linearGradient>
<clipPath id="clip0_306_16904">
<rect width="37.125" height="37.125" fill="white" transform="translate(0.625)"/>
</clipPath>
</defs>
</svg>
