<svg width="28" height="28" viewBox="0 0 28 28" fill="none" xmlns="http://www.w3.org/2000/svg">
<path fill-rule="evenodd" clip-rule="evenodd" d="M14.4988 25.2656C20.712 25.2656 25.7488 20.2288 25.7488 14.0156C25.7488 7.80242 20.712 2.76562 14.4988 2.76562C8.28558 2.76562 3.24878 7.80242 3.24878 14.0156C3.24878 20.2288 8.28558 25.2656 14.4988 25.2656ZM19.2718 9.24525C18.9423 8.91574 18.408 8.91574 18.0785 9.24525L14.4985 12.8246L10.9191 9.24525C10.5896 8.91574 10.0553 8.91574 9.72584 9.24525C9.39634 9.57475 9.39634 10.109 9.72584 10.4385L13.3052 14.0179L9.72584 17.5979C9.39634 17.9274 9.39634 18.4617 9.72584 18.7912L9.79944 18.8567C10.1306 19.119 10.6131 19.0972 10.9191 18.7912L14.4985 15.2111L18.0785 18.7912C18.408 19.1207 18.9423 19.1207 19.2718 18.7912C19.6013 18.4617 19.6013 17.9274 19.2718 17.5979L15.6917 14.0179L19.2718 10.4385C19.6013 10.109 19.6013 9.57475 19.2718 9.24525Z" fill="#929292"/>
</svg>
