<svg width="16" height="16" viewBox="0 0 16 16" fill="none" xmlns="http://www.w3.org/2000/svg">
<path fill-rule="evenodd" clip-rule="evenodd" d="M0.883879 2.77923C0.159289 1.80498 0.938428 0.5 2.24471 0.5H13.9683C15.2498 0.5 16.0334 1.76102 15.359 2.73767L10.9999 9.04952C10.9599 9.10747 10.9387 9.17428 10.9387 9.24243V13.2179C10.9387 13.7972 10.558 14.3222 9.96741 14.5575L7.92301 15.372C6.84147 15.8029 5.62326 15.0932 5.62326 14.0323V9.26255C5.62326 9.1902 5.59936 9.11946 5.55458 9.05925L0.883879 2.77923ZM2.24471 1.96603L6.91541 8.24605C7.1393 8.54707 7.25877 8.90077 7.25877 9.26255V14.0323L9.30316 13.2179V9.24243C9.30316 8.90165 9.40917 8.56763 9.60928 8.27787L13.9683 1.96603L2.24471 1.96603Z" fill="#4A117E"/>
<path d="M7.25877 9.26255C7.25877 8.90077 7.1393 8.54707 6.91541 8.24605L2.24471 1.96603L13.9683 1.96603L9.60928 8.27787C9.40917 8.56763 9.30316 8.90165 9.30316 9.24243V13.2179L7.25877 14.0323V9.26255Z" fill="#4A117E"/>
</svg>
