<svg width="84" height="24" viewBox="0 0 84 24" fill="none" xmlns="http://www.w3.org/2000/svg">
<g clip-path="url(#clip0_87_18903)">
<path fill-rule="evenodd" clip-rule="evenodd" d="M0.00585938 2.50781H37.9746V8.83717H0.00585938V2.50781Z" fill="black"/>
<path fill-rule="evenodd" clip-rule="evenodd" d="M0.00585938 8.8374H37.9746V15.1631H0.00585938V8.8374Z" fill="white"/>
<path fill-rule="evenodd" clip-rule="evenodd" d="M0.00585938 15.1626H37.9746V21.492H0.00585938V15.1626Z" fill="#009900"/>
<path fill-rule="evenodd" clip-rule="evenodd" d="M0.00585938 21.4922L13.9902 12L0.00585938 2.50781V21.4922Z" fill="#FF0000"/>
<path fill-rule="evenodd" clip-rule="evenodd" d="M3.69479 14.5139L4.11746 12.6674H2.22656L3.93208 11.8517L2.75305 10.3759L4.45857 11.1917L4.87382 9.35254L5.2965 11.1991L6.9946 10.3759L5.80815 11.8517L7.51367 12.6674H5.63019L6.05286 14.5139L4.87382 13.0308L3.69479 14.5139Z" fill="white"/>
</g>
<path d="M33.9045 12.008C33.9045 11.24 33.9738 10.4987 34.1125 9.784C34.2618 9.06933 34.4592 8.408 34.7045 7.8C34.9498 7.18133 35.2432 6.62133 35.5845 6.12C35.9258 5.61867 36.2992 5.192 36.7045 4.84H38.9285C38.0645 5.64 37.3818 6.60533 36.8805 7.736C36.3898 8.856 36.1445 10.0987 36.1445 11.464V12.584C36.1445 14.0027 36.3952 15.2667 36.8965 16.376C37.3978 17.4853 38.0752 18.4293 38.9285 19.208H36.6885C36.3045 18.8773 35.9418 18.4613 35.6005 17.96C35.2592 17.4587 34.9605 16.8987 34.7045 16.28C34.4592 15.6507 34.2618 14.9787 34.1125 14.264C33.9738 13.5387 33.9045 12.7867 33.9045 12.008ZM42.4948 15.992V13.048H39.7908V11.16H42.4948V8.216H44.5428V11.16H47.2468V13.048H44.5428V15.992H42.4948ZM57.2405 10.072C57.2405 10.8613 57.1178 11.6027 56.8725 12.296C56.6378 12.9893 56.3285 13.6347 55.9445 14.232C55.5712 14.8187 55.1445 15.3467 54.6645 15.816C54.1952 16.2853 53.7205 16.68 53.2405 17H49.9285C50.6112 16.5093 51.2245 16.0453 51.7685 15.608C52.3125 15.16 52.7818 14.712 53.1765 14.264C53.5818 13.816 53.9125 13.3627 54.1685 12.904C54.4245 12.4347 54.6112 11.9333 54.7285 11.4L54.5845 11.352C54.4885 11.5653 54.3712 11.7733 54.2325 11.976C54.1045 12.1787 53.9392 12.36 53.7365 12.52C53.5445 12.6693 53.3152 12.792 53.0485 12.888C52.7818 12.984 52.4725 13.032 52.1205 13.032C51.6618 13.032 51.2298 12.952 50.8245 12.792C50.4298 12.6213 50.0832 12.3867 49.7845 12.088C49.4965 11.7893 49.2672 11.4267 49.0965 11C48.9365 10.5733 48.8565 10.0933 48.8565 9.56C48.8565 8.984 48.9525 8.456 49.1445 7.976C49.3472 7.496 49.6298 7.08533 49.9925 6.744C50.3658 6.392 50.8085 6.12 51.3205 5.928C51.8325 5.736 52.4085 5.64 53.0485 5.64C53.7098 5.64 54.3018 5.74667 54.8245 5.96C55.3472 6.16267 55.7845 6.46133 56.1365 6.856C56.4992 7.24 56.7712 7.704 56.9525 8.248C57.1445 8.792 57.2405 9.4 57.2405 10.072ZM53.0485 11.192C53.5818 11.192 53.9978 11.048 54.2965 10.76C54.5952 10.4613 54.7445 10.04 54.7445 9.496V9.208C54.7445 8.664 54.5952 8.248 54.2965 7.96C53.9978 7.66133 53.5818 7.512 53.0485 7.512C52.5152 7.512 52.0992 7.66133 51.8005 7.96C51.5018 8.248 51.3525 8.664 51.3525 9.208V9.496C51.3525 10.04 51.5018 10.4613 51.8005 10.76C52.0992 11.048 52.5152 11.192 53.0485 11.192ZM62.7703 17.192C62.1089 17.192 61.5169 17.0907 60.9943 16.888C60.4716 16.6747 60.0289 16.376 59.6663 15.992C59.3143 15.5973 59.0423 15.128 58.8503 14.584C58.6689 14.04 58.5783 13.432 58.5783 12.76C58.5783 11.9813 58.6956 11.2453 58.9303 10.552C59.1756 9.848 59.4849 9.20267 59.8583 8.616C60.2423 8.01867 60.6689 7.48533 61.1383 7.016C61.6183 6.54667 62.0983 6.152 62.5783 5.832H65.8903C65.2076 6.32267 64.5943 6.792 64.0503 7.24C63.5063 7.67733 63.0316 8.12 62.6263 8.568C62.2316 9.016 61.9009 9.47467 61.6343 9.944C61.3783 10.4027 61.1969 10.8987 61.0903 11.432L61.2343 11.48C61.3303 11.2667 61.4423 11.0587 61.5703 10.856C61.7089 10.6533 61.8743 10.4773 62.0663 10.328C62.2689 10.168 62.5036 10.04 62.7703 9.944C63.0369 9.848 63.3463 9.8 63.6983 9.8C64.1569 9.8 64.5836 9.88533 64.9783 10.056C65.3836 10.216 65.7303 10.4453 66.0183 10.744C66.3169 11.0427 66.5463 11.4107 66.7063 11.848C66.8769 12.2747 66.9623 12.7493 66.9623 13.272C66.9623 13.848 66.8609 14.376 66.6583 14.856C66.4663 15.336 66.1836 15.752 65.8103 16.104C65.4476 16.4453 65.0103 16.712 64.4983 16.904C63.9863 17.096 63.4103 17.192 62.7703 17.192ZM62.7703 15.32C63.3036 15.32 63.7196 15.176 64.0183 14.888C64.3169 14.5893 64.4663 14.168 64.4663 13.624V13.336C64.4663 12.792 64.3169 12.376 64.0183 12.088C63.7196 11.7893 63.3036 11.64 62.7703 11.64C62.2369 11.64 61.8209 11.7893 61.5223 12.088C61.2236 12.376 61.0743 12.792 61.0743 13.336V13.624C61.0743 14.168 61.2236 14.5893 61.5223 14.888C61.8209 15.176 62.2369 15.32 62.7703 15.32ZM76.316 17H68.412V14.808L71.852 11.864C72.1613 11.5973 72.4227 11.3573 72.636 11.144C72.8493 10.92 73.02 10.7067 73.148 10.504C73.2867 10.2907 73.3827 10.0827 73.436 9.88C73.5 9.67733 73.532 9.45867 73.532 9.224V9C73.532 8.78667 73.4893 8.6 73.404 8.44C73.3187 8.28 73.2067 8.14667 73.068 8.04C72.9293 7.93333 72.7693 7.85333 72.588 7.8C72.4173 7.74667 72.2413 7.72 72.06 7.72C71.7933 7.72 71.5587 7.76267 71.356 7.848C71.164 7.93333 70.9933 8.05067 70.844 8.2C70.7053 8.33867 70.588 8.504 70.492 8.696C70.396 8.87733 70.3213 9.07467 70.268 9.288L68.172 8.488C68.3 8.104 68.476 7.74133 68.7 7.4C68.924 7.048 69.2013 6.744 69.532 6.488C69.8733 6.22133 70.2733 6.01333 70.732 5.864C71.1907 5.71467 71.708 5.64 72.284 5.64C72.892 5.64 73.4307 5.72533 73.9 5.896C74.3693 6.06667 74.764 6.30133 75.084 6.6C75.4147 6.89867 75.6653 7.256 75.836 7.672C76.0067 8.07733 76.092 8.52 76.092 9C76.092 9.48 76.012 9.91733 75.852 10.312C75.692 10.7067 75.4733 11.08 75.196 11.432C74.9293 11.7733 74.6147 12.0987 74.252 12.408C73.8893 12.7173 73.5107 13.032 73.116 13.352L71.036 14.984H76.316V17ZM81.9098 12.008C81.9098 12.7867 81.8351 13.5387 81.6858 14.264C81.5471 14.9787 81.3498 15.6507 81.0938 16.28C80.8484 16.8987 80.5551 17.4587 80.2138 17.96C79.8724 18.4613 79.5098 18.8773 79.1258 19.208H76.8857C77.7391 18.4293 78.4164 17.4853 78.9178 16.376C79.4191 15.2667 79.6698 14.0027 79.6698 12.584V11.464C79.6698 10.0987 79.4191 8.856 78.9178 7.736C78.4271 6.60533 77.7498 5.64 76.8857 4.84H79.1098C79.5151 5.192 79.8884 5.61867 80.2298 6.12C80.5711 6.62133 80.8644 7.18133 81.1098 7.8C81.3551 8.408 81.5471 9.06933 81.6858 9.784C81.8351 10.4987 81.9098 11.24 81.9098 12.008Z" fill="#243763"/>
<defs>
<clipPath id="clip0_87_18903">
<rect y="2.50781" width="25.3125" height="18.9844" rx="3" fill="white"/>
</clipPath>
</defs>
</svg>
