<svg width="25" height="24" viewBox="0 0 25 24" fill="none" xmlns="http://www.w3.org/2000/svg">
<rect width="24" height="24" transform="translate(0.5)" fill="white"/>
<path fill-rule="evenodd" clip-rule="evenodd" d="M23.54 12.2615C23.54 11.446 23.4668 10.6619 23.3309 9.90918H12.5V14.3576H18.6891C18.4225 15.7951 17.6123 17.013 16.3943 17.8285V20.714H20.1109C22.2855 18.7119 23.54 15.7637 23.54 12.2615Z" fill="#4285F4"/>
<path fill-rule="evenodd" clip-rule="evenodd" d="M12.4999 23.5001C15.6049 23.5001 18.2081 22.4703 20.1108 20.7139L16.3942 17.8285C15.3644 18.5185 14.0472 18.9262 12.4999 18.9262C9.50467 18.9262 6.96945 16.9032 6.06513 14.1851H2.22308V17.1646C4.11536 20.923 8.00445 23.5001 12.4999 23.5001Z" fill="#34A853"/>
<path fill-rule="evenodd" clip-rule="evenodd" d="M6.06523 14.185C5.83523 13.495 5.70455 12.7579 5.70455 12C5.70455 11.242 5.83523 10.505 6.06523 9.81499V6.83545H2.22318C1.44432 8.38795 1 10.1443 1 12C1 13.8557 1.44432 15.612 2.22318 17.1645L6.06523 14.185Z" fill="#FBBC05"/>
<path fill-rule="evenodd" clip-rule="evenodd" d="M12.4999 5.07386C14.1883 5.07386 15.7042 5.65409 16.896 6.79364L20.1944 3.49523C18.2029 1.63955 15.5997 0.5 12.4999 0.5C8.00445 0.5 4.11536 3.07705 2.22308 6.83545L6.06513 9.815C6.96945 7.09682 9.50468 5.07386 12.4999 5.07386Z" fill="#EA4335"/>
</svg>
