<svg width="17" height="16" viewBox="0 0 17 16" fill="none" xmlns="http://www.w3.org/2000/svg">
<path d="M14.7392 3.33337C14.9162 3.33337 15.0771 3.40238 15.1965 3.51497L15.2217 3.53692C15.351 3.66187 15.4116 3.82046 15.4054 3.97687C15.4057 3.98434 15.4058 3.99217 15.4058 4.00004V12C15.4058 12.3682 15.1074 12.6667 14.7392 12.6667H2.73918C2.37099 12.6667 2.07251 12.3682 2.07251 12V4.00004L2.07384 3.97537L2.07251 3.95523C2.07251 3.77666 2.15823 3.61568 2.2955 3.50226C2.41348 3.39723 2.56887 3.33337 2.73918 3.33337H14.7392ZM7.64118 8.67537L4.54051 11.3334H12.9372L9.83651 8.67537L9.21557 9.17165C8.96795 9.36931 8.60067 9.38578 8.33311 9.22107L8.26278 9.17165L7.64118 8.67537ZM14.0725 5.29404L10.8972 7.82871L14.0725 10.5507V5.29404ZM3.40584 5.29471V10.55L6.58051 7.82871L3.40584 5.29471ZM12.7392 4.66671H4.73918L8.73952 8.00004L12.7392 4.66671Z" fill="#4A4A4A"/>
</svg>
