<svg width="19" height="24" viewBox="0 0 19 24" fill="none" xmlns="http://www.w3.org/2000/svg">
<path d="M9.60648 0C4.67161 0 0.656738 4.0164 0.656738 8.95329C0.656738 16.3089 8.71565 23.4911 9.05876 23.7933C9.21536 23.9311 9.41084 24.0001 9.60648 24.0001C9.80211 24.0001 9.99767 23.9312 10.1542 23.7933C10.4971 23.4911 18.5562 16.309 18.5562 8.95329C18.5562 4.0164 14.5413 0 9.60648 0ZM14.8315 8.44525L12.8194 10.4116L13.2946 13.1881C13.3477 13.4992 13.2197 13.8133 12.9644 13.9987C12.8201 14.1034 12.6494 14.1565 12.4777 14.1565C12.3455 14.1565 12.2129 14.1249 12.0914 14.0609L9.60656 12.7512L7.12171 14.0609C6.84252 14.2082 6.50409 14.1838 6.24866 13.9987C5.9933 13.8133 5.8653 13.4991 5.91848 13.1881L6.39363 10.4116L4.38151 8.44525C4.15613 8.22497 4.07508 7.89584 4.1727 7.59612C4.27023 7.2964 4.52938 7.07798 4.84122 7.03249L7.61989 6.62772L8.86304 4.10238C9.00252 3.81907 9.29076 3.63968 9.60648 3.63968C9.92219 3.63968 10.2105 3.81907 10.3499 4.10238L11.5931 6.6278L14.3718 7.03257C14.6836 7.07806 14.9428 7.29648 15.0403 7.5962C15.1379 7.89584 15.0569 8.22497 14.8315 8.44525Z" fill="#6918B4"/>
</svg>
