<svg width="18" height="14" viewBox="0 0 18 14" fill="none" xmlns="http://www.w3.org/2000/svg">
<path d="M16.5 11.9999C16.9603 11.9999 17.3334 12.373 17.3334 12.8333C17.3334 13.2935 16.9603 13.6666 16.5 13.6666H1.50002C1.03978 13.6666 0.666687 13.2935 0.666687 12.8333C0.666687 12.373 1.03978 11.9999 1.50002 11.9999H16.5ZM16.5 6.16659C16.9603 6.16659 17.3334 6.53968 17.3334 6.99992C17.3334 7.46016 16.9603 7.83325 16.5 7.83325H1.50002C1.03978 7.83325 0.666687 7.46016 0.666687 6.99992C0.666687 6.53968 1.03978 6.16659 1.50002 6.16659H16.5ZM16.5 0.333252C16.9603 0.333252 17.3334 0.706348 17.3334 1.16659C17.3334 1.62682 16.9603 1.99992 16.5 1.99992H1.50002C1.03978 1.99992 0.666687 1.62682 0.666687 1.16659C0.666687 0.706348 1.03978 0.333252 1.50002 0.333252H16.5Z" fill="#6918B4"/>
</svg>
