<svg width="33" height="31" viewBox="0 0 33 31" fill="none" xmlns="http://www.w3.org/2000/svg">
<g clip-path="url(#clip0_101_8226)" filter="url(#filter0_d_101_8226)">
<path d="M27.6377 8.90639V7.47656C27.6377 6.76087 27.1634 6.15389 26.5127 5.95327V4.47656C26.5127 3.59775 25.7978 2.88281 24.9189 2.88281H8.60645C7.72763 2.88281 7.0127 3.59775 7.0127 4.47656V5.95327C6.36198 6.15394 5.8877 6.76087 5.8877 7.47656V8.90639C5.23698 9.10702 4.7627 9.714 4.7627 10.4297V20.5547C4.7627 21.4335 5.47763 22.1484 6.35645 22.1484H14.6533C14.9122 22.1484 15.1221 21.9386 15.1221 21.6797C15.1221 21.4208 14.9122 21.2109 14.6533 21.2109H8.72049C8.52845 19.635 7.27609 18.3827 5.7002 18.1906V12.7937C7.27609 12.6017 8.52845 11.3493 8.72049 9.77344H24.8049C24.9969 11.3493 26.2493 12.6017 27.8252 12.7937V18.1906C26.2493 18.3827 24.9969 19.635 24.8049 21.2109H18.8721C18.6132 21.2109 18.4033 21.4208 18.4033 21.6797C18.4033 21.9386 18.6132 22.1484 18.8721 22.1484H27.1689C28.0478 22.1484 28.7627 21.4335 28.7627 20.5547V10.4297C28.7627 9.714 28.2884 9.10702 27.6377 8.90639ZM8.60645 3.82031H24.9189C25.2808 3.82031 25.5752 4.11469 25.5752 4.47656V5.88281H7.9502V4.47656C7.9502 4.11469 8.24457 3.82031 8.60645 3.82031ZM7.48145 6.82031H26.0439C26.4058 6.82031 26.7002 7.11469 26.7002 7.47656V8.83594H6.8252V7.47656C6.8252 7.11469 7.11957 6.82031 7.48145 6.82031ZM7.77376 21.2109H6.35645C5.99457 21.2109 5.7002 20.9166 5.7002 20.5547V19.1374C6.75845 19.3157 7.5954 20.1527 7.77376 21.2109ZM5.7002 11.847V10.4297C5.7002 10.0678 5.99457 9.77344 6.35645 9.77344H7.77376C7.5954 10.8317 6.75845 11.6686 5.7002 11.847ZM25.7516 9.77344H27.1689C27.5308 9.77344 27.8252 10.0678 27.8252 10.4297V11.847C26.7669 11.6686 25.93 10.8317 25.7516 9.77344ZM27.1689 21.2109H25.7516C25.93 20.1527 26.7669 19.3157 27.8252 19.1374V20.5547C27.8252 20.9166 27.5308 21.2109 27.1689 21.2109Z" fill="black"/>
<path d="M20.6064 15.4922C20.6064 13.3727 18.8821 11.6484 16.7627 11.6484C14.6432 11.6484 12.9189 13.3727 12.9189 15.4922C12.9189 17.6116 14.6432 19.3359 16.7627 19.3359C18.8821 19.3359 20.6064 17.6116 20.6064 15.4922ZM13.8564 15.4922C13.8564 13.8897 15.1602 12.5859 16.7627 12.5859C18.3652 12.5859 19.6689 13.8897 19.6689 15.4922C19.6689 17.0947 18.3652 18.3984 16.7627 18.3984C15.1602 18.3984 13.8564 17.0947 13.8564 15.4922Z" fill="black"/>
<path d="M8.41928 15.4922C8.41928 16.3193 9.09217 16.9922 9.91928 16.9922C10.7464 16.9922 11.4193 16.3193 11.4193 15.4922C11.4193 14.6651 10.7464 13.9922 9.91928 13.9922C9.09217 13.9922 8.41928 14.6651 8.41928 15.4922ZM10.4818 15.4922C10.4818 15.8024 10.2295 16.0547 9.91928 16.0547C9.60911 16.0547 9.35678 15.8024 9.35678 15.4922C9.35678 15.182 9.60911 14.9297 9.91928 14.9297C10.2295 14.9297 10.4818 15.182 10.4818 15.4922Z" fill="black"/>
<path d="M25.1061 15.4922C25.1061 14.6651 24.4332 13.9922 23.6061 13.9922C22.779 13.9922 22.1061 14.6651 22.1061 15.4922C22.1061 16.3193 22.779 16.9922 23.6061 16.9922C24.4332 16.9922 25.1061 16.3193 25.1061 15.4922ZM23.0436 15.4922C23.0436 15.182 23.296 14.9297 23.6061 14.9297C23.9163 14.9297 24.1686 15.182 24.1686 15.4922C24.1686 15.8024 23.9163 16.0547 23.6061 16.0547C23.296 16.0547 23.0436 15.8024 23.0436 15.4922Z" fill="black"/>
<path d="M16.7627 21.2109C16.6394 21.2109 16.5185 21.2611 16.4313 21.3483C16.3441 21.4355 16.2939 21.5564 16.2939 21.6797C16.2939 21.803 16.3441 21.9239 16.4313 22.0111C16.5185 22.0983 16.6394 22.1484 16.7627 22.1484C16.886 22.1484 17.0069 22.0983 17.0941 22.0111C17.1813 21.9239 17.2314 21.803 17.2314 21.6797C17.2314 21.5564 17.1813 21.4355 17.0941 21.3483C17.0069 21.2611 16.886 21.2109 16.7627 21.2109Z" fill="black"/>
</g>
<defs>
<filter id="filter0_d_101_8226" x="0.762695" y="0.515625" width="32" height="32" filterUnits="userSpaceOnUse" color-interpolation-filters="sRGB">
<feFlood flood-opacity="0" result="BackgroundImageFix"/>
<feColorMatrix in="SourceAlpha" type="matrix" values="0 0 0 0 0 0 0 0 0 0 0 0 0 0 0 0 0 0 127 0" result="hardAlpha"/>
<feOffset dy="4"/>
<feGaussianBlur stdDeviation="2"/>
<feComposite in2="hardAlpha" operator="out"/>
<feColorMatrix type="matrix" values="0 0 0 0 0 0 0 0 0 0 0 0 0 0 0 0 0 0 0.25 0"/>
<feBlend mode="normal" in2="BackgroundImageFix" result="effect1_dropShadow_101_8226"/>
<feBlend mode="normal" in="SourceGraphic" in2="effect1_dropShadow_101_8226" result="shape"/>
</filter>
<clipPath id="clip0_101_8226">
<rect width="24" height="24" fill="white" transform="translate(4.7627 0.515625)"/>
</clipPath>
</defs>
</svg>
