<svg width="14" height="17" viewBox="0 0 14 17" fill="none" xmlns="http://www.w3.org/2000/svg">
<path d="M7.10649 0.5L7.20671 0.505606C7.60126 0.550041 7.91431 0.853581 7.96014 1.23615L7.96592 1.33333L7.96587 2.01036C8.55495 2.09223 9.1345 2.25871 9.68479 2.5098C11.2586 3.22792 12.2631 4.76274 12.2631 6.44926V10.5972C12.2631 11.6926 12.7296 12.7394 13.5523 13.4902C13.8346 13.7479 13.8481 14.1787 13.5823 14.4525C13.4497 14.5892 13.2647 14.6667 13.0711 14.6667L9.53811 14.6666C9.18418 15.6376 8.22913 16.3333 7.10649 16.3333C5.98385 16.3333 5.02879 15.6376 4.67486 14.6666L1.14189 14.6667C0.754148 14.6667 0.439819 14.3619 0.439819 13.9859C0.439819 13.7982 0.519749 13.6188 0.660716 13.4902C1.4834 12.7394 1.94987 11.6926 1.94987 10.5972V6.44926C1.94987 4.76274 2.95438 3.22792 4.52818 2.5098C5.07847 2.25871 5.65802 2.09223 6.24711 2.01036L6.24705 1.33333C6.24705 0.90597 6.57883 0.553744 7.00626 0.505606L7.10649 0.5ZM8.06697 14.6671L6.14615 14.6673C6.35627 14.8946 6.65101 15.0469 6.98233 15.0776L7.10649 15.0833C7.48807 15.0833 7.83093 14.9226 8.06697 14.6671ZM5.26007 4.01783C4.34269 4.43643 3.73871 5.30464 3.67444 6.27671L3.66874 6.44926V10.5972C3.66874 11.4156 3.48532 12.2149 3.14129 12.9438L3.11269 13H11.0994L11.0717 12.9438C10.7621 12.2878 10.5825 11.5747 10.5497 10.8421L10.5442 10.5972V6.44926C10.5442 5.46617 9.99122 4.5666 9.11149 4.0963L8.9529 4.01783C7.78347 3.48423 6.4295 3.48423 5.26007 4.01783Z" fill="#6918B4"/>
<path d="M5.26007 4.01783C4.34269 4.43643 3.73871 5.30464 3.67444 6.27671L3.66874 6.44926V10.5972C3.66874 11.4156 3.48532 12.2149 3.14129 12.9438L3.11269 13H11.0994L11.0717 12.9438C10.7621 12.2878 10.5825 11.5747 10.5497 10.8421L10.5442 10.5972V6.44926C10.5442 5.46617 9.99122 4.5666 9.11149 4.0963L8.9529 4.01783C7.78347 3.48423 6.4295 3.48423 5.26007 4.01783Z" fill="#6918B4"/>
</svg>
