<svg width="34" height="32" viewBox="0 0 34 32" fill="none" xmlns="http://www.w3.org/2000/svg">
<path d="M22.7254 16.8057C20.9965 19.1262 19.0796 20.9135 18.8849 21.085C18.3637 21.544 17.6943 21.7967 16.9999 21.7967C16.3054 21.7967 15.6361 21.544 15.1149 21.085C14.9202 20.9135 13.0032 19.1264 11.2744 16.8057H4.6652C4.15566 16.8057 3.70794 17.1435 3.56804 17.6333L0.0437206 29.9852C-0.0543871 30.3293 0.0145287 30.6995 0.230091 30.9853C0.445653 31.271 0.782791 31.4389 1.14076 31.4389H32.859C33.217 31.4389 33.5541 31.271 33.7697 30.9853C33.9853 30.6995 34.0543 30.3293 33.9561 29.9852L30.4317 17.6335C30.2918 17.1436 29.8441 16.8058 29.3347 16.8058L22.7254 16.8057ZM8.23303 25.7093C8.06303 25.8792 7.82789 25.9763 7.58714 25.9763C7.34754 25.9763 7.11251 25.8792 6.94251 25.7093C6.77251 25.5394 6.67441 25.3042 6.67441 25.0635C6.67441 24.8227 6.7724 24.5878 6.94251 24.4178C7.11251 24.2479 7.34754 24.1508 7.58714 24.1508C7.82789 24.1508 8.06291 24.2479 8.23303 24.4178C8.4028 24.5877 8.49999 24.8238 8.49999 25.0635C8.5001 25.3033 8.40291 25.5393 8.23303 25.7093ZM10.1109 24.6289C10.0117 24.6631 9.91002 24.6803 9.81076 24.6803C9.43321 24.6791 9.07959 24.4428 8.94954 24.0663C8.78412 23.5896 9.03506 23.0693 9.51209 22.9049C9.98775 22.7395 10.5079 22.9906 10.6735 23.4675C10.8388 23.9431 10.5867 24.4634 10.1109 24.6289ZM12.3562 24.3094C12.3436 24.3094 12.33 24.3094 12.3162 24.3082C11.813 24.2866 11.4217 23.8599 11.4446 23.3568C11.4662 22.8535 11.8917 22.4633 12.3961 22.485C12.8993 22.5068 13.2894 22.9322 13.2678 23.4367C13.2461 23.9272 12.8421 24.3094 12.3562 24.3094ZM15.724 24.2718C15.5837 24.6333 15.2392 24.8559 14.8729 24.8559C14.7633 24.8559 14.6516 24.8355 14.5443 24.7944C14.0731 24.6119 13.8394 24.0836 14.0218 23.6137C14.2032 23.1435 14.7315 22.9099 15.2027 23.0912C15.6728 23.2734 15.9066 23.8016 15.724 24.2718ZM17.9203 25.6489C17.7458 25.9238 17.4503 26.0732 17.1479 26.0732C16.9814 26.0732 16.8125 26.0277 16.6607 25.9317C16.234 25.6615 16.1085 25.0978 16.3778 24.6723C16.6482 24.2456 17.2118 24.12 17.6374 24.3891C18.0629 24.6598 18.1895 25.2232 17.9203 25.6489ZM20.4439 26.2351C20.3732 26.6848 19.9842 27.0054 19.5438 27.0054C19.496 27.0054 19.448 27.0007 19.3989 26.993C18.9015 26.914 18.5626 26.4464 18.6414 25.949C18.7213 25.4505 19.1889 25.1115 19.6864 25.1902C20.1839 25.2702 20.5239 25.7379 20.4439 26.2351ZM22.347 26.8124C22.266 26.8354 22.185 26.8455 22.1051 26.8455C21.7036 26.8455 21.3362 26.5799 21.2255 26.1748C21.0907 25.6887 21.3772 25.1867 21.8632 25.0532H21.8621C22.3481 24.9186 22.8512 25.2039 22.9847 25.6901C23.1193 26.1759 22.833 26.6792 22.347 26.8124ZM24.9425 25.6134C24.7883 25.714 24.6151 25.7619 24.4439 25.7619C24.1461 25.7619 23.8541 25.6169 23.6794 25.3489C23.4034 24.9267 23.5209 24.3609 23.943 24.0859H23.9442C24.3652 23.8098 24.931 23.9273 25.2072 24.3495C25.4832 24.7715 25.3646 25.3373 24.9425 25.6134ZM27.0577 23.8268C26.8877 23.9967 26.6526 24.0938 26.4119 24.0938C26.1722 24.0938 25.9373 23.9967 25.7672 23.8268C25.5973 23.6558 25.4992 23.4206 25.4992 23.1811C25.4992 22.9413 25.5973 22.7053 25.7672 22.5353C25.9361 22.3662 26.1722 22.2683 26.4119 22.2683C26.6526 22.2683 26.8876 22.3662 27.0577 22.5353C27.2276 22.7052 27.3247 22.9413 27.3247 23.1811C27.3247 23.4207 27.2276 23.6558 27.0577 23.8268Z" fill="#929292"/>
<path d="M16.3214 19.7153C16.5153 19.8861 16.7577 19.9715 17 19.9715C17.2424 19.9715 17.4846 19.8861 17.6786 19.7153C17.9501 19.4762 24.3246 13.7948 24.3246 7.91886C24.3246 3.87858 21.0389 0.591797 17.0001 0.591797C12.9613 0.591797 9.67548 3.87869 9.67548 7.91886C9.67548 13.7949 16.05 19.4763 16.3214 19.7153ZM14.2728 7.91886C14.2728 6.40626 15.4962 5.17584 16.9999 5.17584C18.5036 5.17584 19.727 6.40626 19.727 7.91886C19.727 9.43145 18.5036 10.6619 16.9999 10.6619C15.4962 10.6619 14.2728 9.43145 14.2728 7.91886Z" fill="#929292"/>
</svg>
