<svg width="20" height="21" viewBox="0 0 20 21" fill="none" xmlns="http://www.w3.org/2000/svg">
<g clip-path="url(#clip0_32_1755)">
<path d="M11.7269 4.48773C11.0461 4.24941 10.3228 4.125 9.5801 4.125C7.84975 4.125 6.22268 4.79852 4.9992 6.02133C2.47374 8.54746 2.47374 12.6576 4.9992 15.1831C6.22264 16.4059 7.84975 17.0801 9.5801 17.0801C11.3104 17.0801 12.9369 16.4059 14.1603 15.1831C15.3844 13.9596 16.058 12.3325 16.058 10.6022C16.058 9.85258 15.9312 9.12246 15.6883 8.43602C15.6883 8.43602 12.1837 9.8657 11.9733 9.95195C11.4555 10.1643 10.8659 10.035 10.4733 9.63738C10.087 9.24621 9.98053 8.66024 10.1926 8.15352L11.7269 4.48773ZM5.64491 11.4718L5.5726 12.0161C5.56565 12.0658 5.53963 12.1108 5.49975 12.1412C5.45987 12.1716 5.40975 12.1849 5.35975 12.1782L4.23577 12.0275C4.13249 12.0135 4.0603 11.9184 4.0742 11.8152L4.14643 11.2716C4.16038 11.1683 4.25545 11.0954 4.3587 11.1094L5.48272 11.2595C5.53272 11.2662 5.57772 11.2921 5.60811 11.3321C5.63854 11.3721 5.65186 11.4221 5.64491 11.4718ZM5.61635 8.99008C5.61635 8.31238 6.1403 7.76281 6.78784 7.76281C7.43471 7.76281 7.95874 8.31238 7.95874 8.99008C7.95874 9.66734 7.43471 10.217 6.78784 10.217C6.1403 10.217 5.61635 9.66734 5.61635 8.99008ZM8.7944 14.2904C8.7944 14.5821 8.55811 14.8185 8.26667 14.8185H7.37139C7.07999 14.8185 6.84362 14.5821 6.84362 14.2904V13.3954C6.84362 13.1036 7.07999 12.8673 7.37139 12.8673H8.26667C8.55811 12.8673 8.7944 13.1036 8.7944 13.3954V14.2904ZM9.54901 6.1718L8.58088 6.82883C8.49217 6.88938 8.37124 6.86621 8.31042 6.77719L7.99229 6.30895C7.93147 6.21992 7.95491 6.09859 8.04358 6.03813L9.01112 5.38074C9.05417 5.3516 9.10678 5.34086 9.15745 5.35031C9.20811 5.36012 9.25311 5.38961 9.28225 5.43238L9.60034 5.9009C9.6612 5.98996 9.6378 6.11133 9.54901 6.1718ZM13.3303 11.3992L13.4051 10.8389C13.4197 10.7324 13.5172 10.6573 13.6243 10.6716L14.7832 10.8265C14.8344 10.8332 14.8807 10.8601 14.9124 10.9013C14.9435 10.9421 14.9574 10.9941 14.9504 11.0454L14.8757 11.6065C14.8687 11.6578 14.8415 11.7041 14.801 11.7354C14.7598 11.7668 14.7078 11.7807 14.6565 11.7737L13.4976 11.6184C13.3905 11.6043 13.3158 11.506 13.3303 11.3992ZM10.8993 11.0854C11.1533 10.9421 11.4752 11.0321 11.6184 11.2862L12.9623 13.6704C13.0306 13.7923 13.0484 13.9365 13.0104 14.0714C12.973 14.2064 12.883 14.3208 12.7614 14.3895L11.899 14.8752C11.6449 15.0184 11.3231 14.9284 11.1799 14.6743L9.83608 12.2901C9.7676 12.1678 9.74991 12.0237 9.78796 11.8887C9.8253 11.7537 9.91534 11.6394 10.0369 11.5706L10.8993 11.0854Z" fill="#4A117E"/>
<path d="M16.8913 7.94513C17.1962 8.7856 17.3555 9.68165 17.3555 10.6022C17.3555 12.6791 16.5464 14.6318 15.0777 16.1005C13.609 17.5686 11.6563 18.3776 9.58005 18.3776C7.50313 18.3776 5.5504 17.5685 4.08173 16.1005C1.05001 13.0694 1.05001 8.13626 4.08173 5.10388C5.5504 3.63583 7.50313 2.8274 9.58005 2.8274C10.4976 2.8274 11.3908 2.98544 12.2289 3.28818L12.8047 1.91236C9.51446 0.693724 5.67095 1.4056 3.02677 4.04923C-0.592256 7.66896 -0.592256 13.5363 3.02677 17.1554C6.64649 20.7742 12.5129 20.7742 16.1327 17.1554C18.7751 14.5129 19.4877 10.6715 18.2713 7.38196L16.8913 7.94513Z" fill="#4A117E"/>
<path d="M19.7263 4.94504C18.8514 3.01926 17.3213 1.3868 15.2842 0.41707C15.231 0.391758 15.173 0.378906 15.1152 0.378906C15.0677 0.378906 15.0202 0.387461 14.9751 0.404727C14.8743 0.443359 14.7938 0.520977 14.752 0.620469L11.3895 8.65441C11.3781 8.68164 11.3845 8.71301 11.4048 8.73394C11.4188 8.74805 11.4376 8.75547 11.4565 8.75547C11.4657 8.75547 11.4751 8.75375 11.4839 8.75008L19.5166 5.47219C19.6161 5.43195 19.694 5.35273 19.7339 5.25328C19.7732 5.15383 19.7707 5.0423 19.7263 4.94504ZM14.2845 6.53539C14.2845 6.64309 14.197 6.73023 14.0893 6.73023H13.5235C13.4158 6.73023 13.3284 6.64309 13.3284 6.53539V5.36516C13.3284 5.25738 13.4158 5.17031 13.5235 5.17031H14.0893C14.197 5.17031 14.2845 5.25738 14.2845 5.36516V6.53539ZM15.2108 3.2568C15.2108 2.7807 15.5459 2.3948 15.9584 2.3948C16.3721 2.3948 16.706 2.7807 16.706 3.2568C16.706 3.73328 16.3721 4.11941 15.9584 4.11941C15.5459 4.11945 15.2108 3.73328 15.2108 3.2568ZM17.2148 5.28879C17.2052 5.33945 17.1755 5.38441 17.1331 5.41363L16.1656 6.07066C16.1231 6.0998 16.0705 6.11055 16.0199 6.10101C15.9691 6.09125 15.9242 6.06176 15.8951 6.01898L15.5776 5.55043C15.5168 5.46172 15.5402 5.34043 15.6288 5.28023L16.5958 4.6232C16.6845 4.56269 16.8054 4.58582 16.8663 4.67484L17.1844 5.14277C17.2135 5.18547 17.2243 5.23809 17.2148 5.28879Z" fill="#4A117E"/>
</g>
<defs>
<clipPath id="clip0_32_1755">
<rect width="20" height="20" fill="white" transform="translate(0 0.0649414)"/>
</clipPath>
</defs>
</svg>
