<svg width="20" height="22" viewBox="0 0 20 22" fill="none" xmlns="http://www.w3.org/2000/svg">
<path fill-rule="evenodd" clip-rule="evenodd" d="M15.3333 9.20312C17.9107 9.20312 20 7.14643 20 4.60938C20 2.07232 17.9107 0.015625 15.3333 0.015625C12.756 0.015625 10.6667 2.07232 10.6667 4.60938C10.6667 7.14643 12.756 9.20312 15.3333 9.20312ZM8 9.20312C8 11.3777 6.20914 13.1406 4 13.1406C1.79086 13.1406 0 11.3777 0 9.20312C0 7.0285 1.79086 5.26562 4 5.26562C6.20914 5.26562 8 7.0285 8 9.20312ZM17.3333 17.7344C17.3333 19.5466 15.8409 21.0156 14 21.0156C12.1591 21.0156 10.6667 19.5466 10.6667 17.7344C10.6667 15.9222 12.1591 14.4531 14 14.4531C15.8409 14.4531 17.3333 15.9222 17.3333 17.7344Z" fill="#929292"/>
</svg>
