<svg width="15" height="23" viewBox="0 0 15 23" fill="none" xmlns="http://www.w3.org/2000/svg">
<path d="M7.60645 0C10.9202 0 13.6064 2.68629 13.6064 6C13.6064 9.31371 10.9202 12 7.60645 12C4.29274 12 1.60645 9.31371 1.60645 6C1.60645 2.68629 4.29274 0 7.60645 0ZM7.60645 2C5.39731 2 3.60645 3.79086 3.60645 6C3.60645 8.20914 5.39731 10 7.60645 10C9.81558 10 11.6064 8.20914 11.6064 6C11.6064 3.79086 9.81558 2 7.60645 2Z" fill="#808080"/>
<path d="M7.60645 13C9.55432 13 11.3721 13.593 12.9093 14.6025C17.4862 17.6083 13.0822 23 7.60645 23C2.0836 23 -2.44192 17.573 2.20249 14.5844C3.7608 13.5817 5.61569 13 7.60645 13Z" fill="#808080"/>
<path d="M7.60645 2C5.39731 2 3.60645 3.79086 3.60645 6C3.60645 8.20914 5.39731 10 7.60645 10C9.81558 10 11.6064 8.20914 11.6064 6C11.6064 3.79086 9.81558 2 7.60645 2Z" fill="#808080"/>
</svg>
