<svg width="21" height="26" viewBox="0 0 21 26" fill="none" xmlns="http://www.w3.org/2000/svg">
<path d="M10.3597 17.6555C8.82668 17.6555 7.28758 17.8005 5.91101 18.0862V0.878128C5.91092 0.40127 5.5243 0.0146484 5.04736 0.0146484C4.57041 0.0146484 4.18388 0.40127 4.18388 0.878128V18.5515C2.25927 19.2104 0.947266 20.2273 0.947266 21.5851C0.947266 24.1649 5.68237 25.5146 10.3597 25.5146C15.037 25.5146 19.7721 24.1649 19.7721 21.5851C19.7721 19.0053 15.0369 17.6555 10.3597 17.6555Z" fill="#929292"/>
<path d="M19.7922 9.09038L16.893 6.19128L19.8239 3.26032C20.0709 3.01331 20.1447 2.64189 20.0113 2.31923C19.8776 1.99657 19.5626 1.78613 19.2134 1.78613H7.07812V10.5962H19.215C19.692 10.5962 20.0787 10.2095 20.0787 9.73269C20.0786 9.47769 19.9681 9.24845 19.7922 9.09038Z" fill="#929292"/>
</svg>
