<svg width="21" height="20" viewBox="0 0 21 20" fill="none" xmlns="http://www.w3.org/2000/svg">
<path d="M10.654 14.2501L6.07349 16.6265C6.01221 16.6583 5.93676 16.6344 5.90497 16.5731C5.89252 16.5492 5.88818 16.5218 5.89261 16.4951L6.73725 11.4045C6.74834 11.3376 6.72622 11.2695 6.67795 11.222L3.00241 7.60002C2.95324 7.55156 2.95266 7.47242 3.00111 7.42324C3.02008 7.40399 3.04478 7.39141 3.0715 7.38738L8.17401 6.61758C8.24102 6.60747 8.29893 6.5654 8.32925 6.50479L10.6381 1.8899C10.669 1.82816 10.7441 1.80315 10.8059 1.83404C10.83 1.84613 10.8496 1.86573 10.8617 1.8899L13.1706 6.50479C13.2009 6.5654 13.2588 6.60747 13.3258 6.61758L18.4283 7.38738C18.4966 7.39768 18.5436 7.46136 18.5333 7.52963C18.5293 7.55635 18.5167 7.58105 18.4974 7.60002L14.8219 11.222C14.7736 11.2695 14.7515 11.3376 14.7626 11.4045L15.6072 16.4951C15.6185 16.5632 15.5725 16.6276 15.5044 16.6389C15.4777 16.6433 15.4503 16.639 15.4264 16.6265L10.8459 14.2501C10.7857 14.2189 10.7141 14.2189 10.654 14.2501Z" fill="#FFCC00" stroke="#FFCC00" stroke-width="1.5" stroke-linejoin="round"/>
</svg>
